<svg xmlns="http://www.w3.org/2000/svg" viewBox="0 0 512 512">
  <rect width="512" height="512" rx="118" fill="#151820"/>
  <path d="M278 132h83c18 0 32 14 32 32v150c0 13-11 24-24 24s-24-11-24-24V188h-67c-13 0-24-11-24-24s11-32 24-32z" fill="#fff3df"/>
  <path d="M201 136h77c13 0 24 11 24 24v151c0 13-11 24-24 24s-24-11-24-24V184h-53c-13 0-24-11-24-24s11-24 24-24z" fill="#ff8a1f"/>
  <path d="M332 289l-116 53 123 49c14 5 21 20 16 34s-20 21-34 16l-181-72c-21-8-22-38-1-48l172-79c13-6 29 0 35 13s0 28-14 34z" fill="#fff3df"/>
  <path d="M241 298c0 54-64 112-64 112s-64-58-64-112a64 64 0 1 1 128 0z" fill="#ff8a1f"/>
  <circle cx="177" cy="298" r="25" fill="#151820"/>
</svg>
